<svg width="350" height="350" xmlns="http://www.w3.org/2000/svg" xmlns:svg="http://www.w3.org/2000/svg">
<g id="extracted" transform="translate(-199.216347496,-117.209699071) scale(0.542738257618)">
<path xmlns:ns0="http://www.w3.org/2000/svg" d=" M973.260193,618.000000   C973.211243,654.996399 973.530029,691.498047 973.018616,727.987976   C972.380920,773.493835 940.853088,811.678345 896.354309,821.268799   C888.600159,822.939941 880.497864,823.480591 872.539734,823.624939   C852.548035,823.987793 832.546753,823.830139 812.549316,823.857117   C811.632324,823.858398 810.715088,823.625793 809.182861,823.419128   C810.146973,822.165649 810.619263,821.338989 811.284180,820.718811   C821.273254,811.401611 831.347961,802.175415 841.275818,792.793640   C848.303284,786.152832 852.897217,778.200806 853.054626,768.250122   C853.104187,765.112915 854.612427,764.269531 857.433228,764.313721   C863.764465,764.413025 870.099731,764.444092 876.430725,764.339172   C900.839355,763.934692 918.853333,746.445312 919.023010,722.038940   C919.326538,678.378540 919.096436,634.714417 919.095703,591.051880   C919.094360,513.058716 919.065674,435.065552 919.128845,357.072479   C919.140076,343.173676 915.638550,330.776489 905.475769,320.729767   C897.262329,312.610260 887.474121,308.278687 875.949280,308.038788   C867.619690,307.865417 859.285461,307.869476 850.953308,307.869232   C737.796570,307.866058 624.639832,307.916565 511.483124,307.840729   C493.634949,307.828766 479.425385,314.504303 469.450104,329.415771   C463.963409,337.617523 462.461334,346.996094 462.867096,356.659729   C463.038544,360.742798 461.779327,362.160797 457.551392,362.094635   C442.889587,361.865143 428.219788,361.865997 413.557983,362.094147   C409.269012,362.160919 407.939972,360.961761 407.733704,356.512543   C405.191498,301.679810 446.317810,261.552002 492.515198,254.334030   C497.921783,253.489304 503.463257,253.178467 508.942444,253.176025   C632.264893,253.121109 755.588867,252.810074 878.908936,253.354553   C916.200745,253.519196 953.765076,278.575653 968.196960,320.610809   C973.696533,336.629242 973.237549,353.096680 973.556702,369.538788   C973.802307,382.193420 973.284851,394.860931 973.278442,407.522797   C973.243042,477.515198 973.260254,547.507629 973.260193,618.000000  z" fill="#40A3FD" opacity="1.000000" stroke="none" />

</g>
</svg>