<svg width="500" height="500" xmlns="http://www.w3.org/2000/svg" xmlns:svg="http://www.w3.org/2000/svg">
<g id="extracted">
<path xmlns:ns0="http://www.w3.org/2000/svg" d=" M201.626923,301.828949   C185.270172,283.802277 169.150971,266.037873 153.045685,248.260956   C152.842865,248.037079 152.816864,247.652924 152.448273,246.602265   C154.357453,246.513336 156.051849,246.366425 157.746246,246.365998   C173.239227,246.362091 188.734161,246.253876 204.223847,246.486237   C208.254913,246.546662 209.302277,245.256745 209.287323,241.348969   C209.172089,211.363129 209.265289,181.376435 209.293427,151.390045   C209.295258,149.435761 209.293732,147.481476 209.293732,145.235565   C236.650787,145.235565 263.382355,145.235565 290.648285,145.235565   C290.648285,147.476898 290.648346,149.44339 290.648346,151.409882   C290.64859,181.229706 290.731354,211.05008 290.557587,240.868866   C290.532257,245.209015 291.678009,246.617584 296.142975,246.541596   C311.464935,246.28067 326.794037,246.441742 342.120453,246.441925   C343.713959,246.441925 345.307526,246.441925 346.901032,246.441925   C347.117951,246.835297 347.334808,247.228729 347.551727,247.622101   C315.242401,283.091767 282.933014,318.561371 249.955597,354.764435   C233.631134,336.883881 217.748383,319.487152 201.626923,301.828949  z" fill="#FCFCFD" opacity="1.000000" stroke="none" />

</g>
</svg>