<svg width="350" height="350" xmlns="http://www.w3.org/2000/svg" xmlns:svg="http://www.w3.org/2000/svg">
<g id="extracted" transform="translate(-115.716728911,-199.824326619) scale(0.54342395563)">
<path xmlns:ns0="http://www.w3.org/2000/svg" d=" M780.001709,867.099915   C792.481079,867.099915 804.460938,867.099915 816.908325,867.099915   C817.908386,878.233643 817.071838,888.913452 814.660645,899.453918   C805.321777,940.278015 768.061462,971.709778 726.145325,974.156921   C720.160645,974.506226 714.155640,974.642578 708.159912,974.645874   C591.503784,974.709839 474.847168,974.568726 358.191772,974.884949   C325.273224,974.974182 297.441681,964.346191 275.768707,939.278259   C261.705566,923.012329 254.257706,903.828491 252.837234,882.386902   C252.364059,875.244202 252.233307,868.067871 252.228210,860.906738   C252.148132,748.416809 252.036087,635.926758 252.172531,523.437073   C252.188843,509.988190 252.076706,496.236023 254.670990,483.149170   C263.050323,440.879517 299.728241,408.665466 343.019897,405.990967   C366.875793,404.517181 390.897491,405.727020 415.134644,405.727020   C414.347412,406.570221 413.477783,407.622101 412.487091,408.543793   C404.312775,416.148895 396.178436,423.798676 387.909821,431.300262   C378.208069,440.102081 370.406464,449.783813 372.134827,464.507477   C366.271454,464.507477 360.989349,464.519867 355.707306,464.505096   C341.797943,464.466125 329.422150,468.402344 319.452484,478.524780   C311.804962,486.289520 307.145416,495.421783 306.794800,506.499451   C306.599823,512.660461 306.205109,518.820862 306.205170,524.981506   C306.206268,639.471252 306.264923,753.960999 306.275085,868.450745   C306.276276,881.808411 308.625183,894.353027 318.092529,904.552307   C326.833801,913.969421 337.381256,919.761658 350.479523,920.221741   C353.476807,920.327026 356.475006,920.483765 359.472839,920.484436   C477.962189,920.510925 596.451538,920.499023 714.940857,920.574402   C725.800293,920.581299 735.647095,917.944458 744.469360,911.484619   C754.906616,903.842041 760.833252,893.657043 761.924744,880.797913   C762.287415,876.525452 761.981995,872.196228 761.981995,867.099915   C768.335938,867.099915 773.919067,867.099915 780.001709,867.099915  z" fill="#FBFCFD" opacity="1.000000" stroke="none" />

</g>
</svg>