<svg version="1.1" id="Layer_1" xmlns="http://www.w3.org/2000/svg" xmlns:xlink="http://www.w3.org/1999/xlink" x="0px" y="0px"
	 width="100%" viewBox="0 0 1224 1224" enable-background="new 0 0 1224 1224" xml:space="preserve">
<path fill="#002AAC" opacity="1.000000" stroke="none" 
	d="
M848.000000,1225.000000 
	C565.333313,1225.000000 283.166656,1225.000000 1.000000,1225.000000 
	C1.000000,817.000000 1.000000,409.000000 1.000000,1.000000 
	C409.000000,1.000000 817.000000,1.000000 1225.000000,1.000000 
	C1225.000000,409.000000 1225.000000,817.000000 1225.000000,1225.000000 
	C1099.500000,1225.000000 974.000000,1225.000000 848.000000,1225.000000 
M670.740601,815.224060 
	C687.111389,811.439819 702.544189,805.313110 716.773315,796.358826 
	C720.892456,793.766602 723.934265,794.112183 727.246521,797.712524 
	C733.561646,804.576782 740.065552,811.278503 746.707153,817.828613 
	C754.199707,825.217957 765.930115,825.438843 773.322632,818.180054 
	C787.709778,804.053223 801.994019,789.817505 816.108032,775.418274 
	C823.877991,767.491211 823.657959,756.491516 815.977905,748.595154 
	C809.355347,741.786194 802.753662,734.947998 795.896301,728.380066 
	C792.441589,725.071289 791.790833,722.244995 794.548767,718.007202 
	C804.300293,703.022766 810.494385,686.523987 813.822510,669.009888 
	C814.597839,664.929749 816.379822,663.960876 820.169800,664.038208 
	C830.830933,664.255859 841.501099,664.288269 852.163391,664.120422 
	C865.662842,663.907959 872.053711,657.427795 872.099609,643.986206 
	C872.170105,623.322388 872.131165,602.657959 872.064514,581.994080 
	C872.027832,570.624939 866.146851,564.218262 854.658630,563.821472 
	C843.182434,563.425171 831.682129,563.684326 820.192810,563.735413 
	C816.839844,563.750305 814.624939,563.011902 813.814636,559.100586 
	C810.200867,541.656677 803.792542,525.244324 794.414917,510.084351 
	C791.804871,505.865112 792.461182,502.909393 795.916504,499.621307 
	C802.553650,493.305176 808.932190,486.715118 815.358521,480.180237 
	C823.616394,471.782867 823.725220,460.550842 815.482666,452.156250 
	C802.406433,438.838623 789.270386,425.578430 776.045105,412.408875 
	C765.755188,402.162262 754.817627,402.174683 744.500671,412.382477 
	C738.461304,418.357819 732.555298,424.473419 726.740845,430.668060 
	C724.038513,433.547119 721.528564,434.088470 717.992310,431.971191 
	C702.296265,422.573669 685.506836,415.784882 667.653625,411.740509 
	C664.335510,410.988861 662.990906,409.453339 663.057068,405.929962 
	C663.257080,395.268280 663.214600,384.600006 663.123962,373.935486 
	C663.006165,360.079346 657.199707,354.140808 643.386047,354.054474 
	C622.722778,353.925323 602.057739,353.950592 581.394165,354.052521 
	C569.078979,354.113281 562.249756,360.994598 562.154724,373.257324 
	C562.070740,384.088470 562.104187,394.921143 562.176514,405.752533 
	C562.194702,408.480713 561.879211,410.544067 558.622925,411.316742 
	C540.503845,415.615997 523.394531,422.467957 507.361481,431.974609 
	C504.174377,433.864410 501.461182,433.251282 498.866943,430.574402 
	C493.184937,424.711334 487.353729,418.992523 481.564697,413.233643 
	C470.331482,402.058929 459.811951,401.954254 448.579010,413.073456 
	C435.788391,425.734558 423.074554,438.473816 410.392456,451.243713 
	C401.955811,459.738739 401.886627,471.061890 410.163696,479.746582 
	C416.141022,486.018280 422.196503,492.215942 428.248932,498.415527 
	C433.738800,504.038818 433.894165,504.343384 429.888428,511.269104 
	C421.306030,526.107544 415.066498,541.835815 411.831390,558.680176 
	C411.112061,562.425476 409.290527,563.442688 405.680450,563.404114 
	C394.354828,563.283264 382.998474,563.020142 371.705200,563.683472 
	C358.711517,564.446533 353.159637,570.515869 353.009216,583.569336 
	C352.773071,604.063782 352.787445,624.564270 352.982178,645.059387 
	C353.092224,656.640625 360.664062,663.967163 372.256134,664.118958 
	C383.419189,664.265198 394.587830,664.292969 405.749023,664.094116 
	C409.234283,664.032043 410.782257,665.123779 411.499481,668.586792 
	C415.142883,686.178101 421.458771,702.794556 430.510803,718.321960 
	C432.916779,722.449097 432.430389,725.605408 428.936066,728.922913 
	C422.291595,735.231201 415.817566,741.731750 409.503845,748.372253 
	C402.118805,756.139404 401.834839,766.791931 409.174835,774.476196 
	C422.869751,788.813599 436.728088,803.004272 450.832458,816.938110 
	C460.242584,826.234558 470.247375,825.905273 479.832581,816.570435 
	C486.398010,810.176392 492.916473,803.724365 499.212738,797.068237 
	C502.034576,794.085144 504.463654,793.841797 507.899933,795.981934 
	C523.175110,805.495056 539.678772,812.091370 557.282654,815.785095 
	C560.943115,816.553162 562.229309,818.141235 562.161804,821.828674 
	C561.963501,832.657166 561.898315,843.494202 562.095764,854.322205 
	C562.318420,866.528198 568.298584,873.401184 580.326233,873.678894 
	C601.977295,874.178711 623.655151,874.166748 645.307434,873.699158 
	C656.862854,873.449646 662.727966,866.725708 662.934814,855.045349 
	C663.117798,844.717407 662.923828,834.382751 662.896057,824.051086 
	C662.876892,816.910645 662.876709,816.910645 670.740601,815.224060 
M779.502197,867.099915 
	C773.919067,867.099915 768.335938,867.099915 761.981995,867.099915 
	C761.981995,872.196228 762.287415,876.525452 761.924744,880.797913 
	C760.833252,893.657043 754.906616,903.842041 744.469360,911.484619 
	C735.647095,917.944458 725.800293,920.581299 714.940857,920.574402 
	C596.451538,920.499023 477.962189,920.510925 359.472839,920.484436 
	C356.475006,920.483765 353.476807,920.327026 350.479523,920.221741 
	C337.381256,919.761658 326.833801,913.969421 318.092529,904.552307 
	C308.625183,894.353027 306.276276,881.808411 306.275085,868.450745 
	C306.264923,753.960999 306.206268,639.471252 306.205170,524.981506 
	C306.205109,518.820862 306.599823,512.660461 306.794800,506.499451 
	C307.145416,495.421783 311.804962,486.289520 319.452484,478.524780 
	C329.422150,468.402344 341.797943,464.466125 355.707306,464.505096 
	C360.989349,464.519867 366.271454,464.507477 372.134827,464.507477 
	C370.406464,449.783813 378.208069,440.102081 387.909821,431.300262 
	C396.178436,423.798676 404.312775,416.148895 412.487091,408.543793 
	C413.477783,407.622101 414.347412,406.570221 415.134644,405.727020 
	C390.897491,405.727020 366.875793,404.517181 343.019897,405.990967 
	C299.728241,408.665466 263.050323,440.879517 254.670990,483.149170 
	C252.076706,496.236023 252.188843,509.988190 252.172531,523.437073 
	C252.036087,635.926758 252.148132,748.416809 252.228210,860.906738 
	C252.233307,868.067871 252.364059,875.244202 252.837234,882.386902 
	C254.257706,903.828491 261.705566,923.012329 275.768707,939.278259 
	C297.441681,964.346191 325.273224,974.974182 358.191772,974.884949 
	C474.847168,974.568726 591.503784,974.709839 708.159912,974.645874 
	C714.155640,974.642578 720.160645,974.506226 726.145325,974.156921 
	C768.061462,971.709778 805.321777,940.278015 814.660645,899.453918 
	C817.071838,888.913452 817.908386,878.233643 816.908325,867.099915 
	C804.460938,867.099915 792.481079,867.099915 779.502197,867.099915 
M973.259460,617.500000 
	C973.260254,547.507629 973.243042,477.515198 973.278442,407.522797 
	C973.284851,394.860931 973.802307,382.193420 973.556702,369.538788 
	C973.237549,353.096680 973.696533,336.629242 968.196960,320.610809 
	C953.765076,278.575653 916.200745,253.519196 878.908936,253.354553 
	C755.588867,252.810074 632.264893,253.121109 508.942444,253.176025 
	C503.463257,253.178467 497.921783,253.489304 492.515198,254.334030 
	C446.317810,261.552002 405.191498,301.679810 407.733704,356.512543 
	C407.939972,360.961761 409.269012,362.160919 413.557983,362.094147 
	C428.219788,361.865997 442.889587,361.865143 457.551392,362.094635 
	C461.779327,362.160797 463.038544,360.742798 462.867096,356.659729 
	C462.461334,346.996094 463.963409,337.617523 469.450104,329.415771 
	C479.425385,314.504303 493.634949,307.828766 511.483124,307.840729 
	C624.639832,307.916565 737.796570,307.866058 850.953308,307.869232 
	C859.285461,307.869476 867.619690,307.865417 875.949280,308.038788 
	C887.474121,308.278687 897.262329,312.610260 905.475769,320.729767 
	C915.638550,330.776489 919.140076,343.173676 919.128845,357.072479 
	C919.065674,435.065552 919.094360,513.058716 919.095703,591.051880 
	C919.096436,634.714417 919.326538,678.378540 919.023010,722.038940 
	C918.853333,746.445312 900.839355,763.934692 876.430725,764.339172 
	C870.099731,764.444092 863.764465,764.413025 857.433228,764.313721 
	C854.612427,764.269531 853.104187,765.112915 853.054626,768.250122 
	C852.897217,778.200806 848.303284,786.152832 841.275818,792.793640 
	C831.347961,802.175415 821.273254,811.401611 811.284180,820.718811 
	C810.619263,821.338989 810.146973,822.165649 809.182861,823.419128 
	C810.715088,823.625793 811.632324,823.858398 812.549316,823.857117 
	C832.546753,823.830139 852.548035,823.987793 872.539734,823.624939 
	C880.497864,823.480591 888.600159,822.939941 896.354309,821.268799 
	C940.853088,811.678345 972.380920,773.493835 973.018616,727.987976 
	C973.530029,691.498047 973.211243,654.996399 973.259460,617.500000 
z"/>
<path fill="#41A3FD" opacity="1.000000" stroke="none" 
	d="
M670.335205,815.318359 
	C662.876709,816.910645 662.876892,816.910645 662.896057,824.051086 
	C662.923828,834.382751 663.117798,844.717407 662.934814,855.045349 
	C662.727966,866.725708 656.862854,873.449646 645.307434,873.699158 
	C623.655151,874.166748 601.977295,874.178711 580.326233,873.678894 
	C568.298584,873.401184 562.318420,866.528198 562.095764,854.322205 
	C561.898315,843.494202 561.963501,832.657166 562.161804,821.828674 
	C562.229309,818.141235 560.943115,816.553162 557.282654,815.785095 
	C539.678772,812.091370 523.175110,805.495056 507.899933,795.981934 
	C504.463654,793.841797 502.034576,794.085144 499.212738,797.068237 
	C492.916473,803.724365 486.398010,810.176392 479.832581,816.570435 
	C470.247375,825.905273 460.242584,826.234558 450.832458,816.938110 
	C436.728088,803.004272 422.869751,788.813599 409.174835,774.476196 
	C401.834839,766.791931 402.118805,756.139404 409.503845,748.372253 
	C415.817566,741.731750 422.291595,735.231201 428.936066,728.922913 
	C432.430389,725.605408 432.916779,722.449097 430.510803,718.321960 
	C421.458771,702.794556 415.142883,686.178101 411.499481,668.586792 
	C410.782257,665.123779 409.234283,664.032043 405.749023,664.094116 
	C394.587830,664.292969 383.419189,664.265198 372.256134,664.118958 
	C360.664062,663.967163 353.092224,656.640625 352.982178,645.059387 
	C352.787445,624.564270 352.773071,604.063782 353.009216,583.569336 
	C353.159637,570.515869 358.711517,564.446533 371.705200,563.683472 
	C382.998474,563.020142 394.354828,563.283264 405.680450,563.404114 
	C409.290527,563.442688 411.112061,562.425476 411.831390,558.680176 
	C415.066498,541.835815 421.306030,526.107544 429.888428,511.269104 
	C433.894165,504.343384 433.738800,504.038818 428.248932,498.415527 
	C422.196503,492.215942 416.141022,486.018280 410.163696,479.746582 
	C401.886627,471.061890 401.955811,459.738739 410.392456,451.243713 
	C423.074554,438.473816 435.788391,425.734558 448.579010,413.073456 
	C459.811951,401.954254 470.331482,402.058929 481.564697,413.233643 
	C487.353729,418.992523 493.184937,424.711334 498.866943,430.574402 
	C501.461182,433.251282 504.174377,433.864410 507.361481,431.974609 
	C523.394531,422.467957 540.503845,415.615997 558.622925,411.316742 
	C561.879211,410.544067 562.194702,408.480713 562.176514,405.752533 
	C562.104187,394.921143 562.070740,384.088470 562.154724,373.257324 
	C562.249756,360.994598 569.078979,354.113281 581.394165,354.052521 
	C602.057739,353.950592 622.722778,353.925323 643.386047,354.054474 
	C657.199707,354.140808 663.006165,360.079346 663.123962,373.935486 
	C663.214600,384.600006 663.257080,395.268280 663.057068,405.929962 
	C662.990906,409.453339 664.335510,410.988861 667.653625,411.740509 
	C685.506836,415.784882 702.296265,422.573669 717.992310,431.971191 
	C721.528564,434.088470 724.038513,433.547119 726.740845,430.668060 
	C732.555298,424.473419 738.461304,418.357819 744.500671,412.382477 
	C754.817627,402.174683 765.755188,402.162262 776.045105,412.408875 
	C789.270386,425.578430 802.406433,438.838623 815.482666,452.156250 
	C823.725220,460.550842 823.616394,471.782867 815.358521,480.180237 
	C808.932190,486.715118 802.553650,493.305176 795.916504,499.621307 
	C792.461182,502.909393 791.804871,505.865112 794.414917,510.084351 
	C803.792542,525.244324 810.200867,541.656677 813.814636,559.100586 
	C814.624939,563.011902 816.839844,563.750305 820.192810,563.735413 
	C831.682129,563.684326 843.182434,563.425171 854.658630,563.821472 
	C866.146851,564.218262 872.027832,570.624939 872.064514,581.994080 
	C872.131165,602.657959 872.170105,623.322388 872.099609,643.986206 
	C872.053711,657.427795 865.662842,663.907959 852.163391,664.120422 
	C841.501099,664.288269 830.830933,664.255859 820.169800,664.038208 
	C816.379822,663.960876 814.597839,664.929749 813.822510,669.009888 
	C810.494385,686.523987 804.300293,703.022766 794.548767,718.007202 
	C791.790833,722.244995 792.441589,725.071289 795.896301,728.380066 
	C802.753662,734.947998 809.355347,741.786194 815.977905,748.595154 
	C823.657959,756.491516 823.877991,767.491211 816.108032,775.418274 
	C801.994019,789.817505 787.709778,804.053223 773.322632,818.180054 
	C765.930115,825.438843 754.199707,825.217957 746.707153,817.828613 
	C740.065552,811.278503 733.561646,804.576782 727.246521,797.712524 
	C723.934265,794.112183 720.892456,793.766602 716.773315,796.358826 
	C702.544189,805.313110 687.111389,811.439819 670.335205,815.318359 
M595.270325,763.215820 
	C650.909912,768.314087 697.059509,750.015564 731.701172,705.922058 
	C758.125671,672.287842 766.047607,633.192078 760.393127,591.313904 
	C755.372681,554.132080 738.437439,523.009766 709.601501,498.914124 
	C677.302002,471.924377 639.701111,461.083771 597.974243,464.941559 
	C556.080139,468.814789 521.482605,487.006409 495.368988,520.117065 
	C468.556702,554.113586 459.731140,593.224976 464.833130,635.747498 
	C472.837036,702.455750 527.745056,756.332886 595.270325,763.215820 
z"/>
<path fill="#FBFCFD" opacity="1.000000" stroke="none" 
	d="
M780.001709,867.099915 
	C792.481079,867.099915 804.460938,867.099915 816.908325,867.099915 
	C817.908386,878.233643 817.071838,888.913452 814.660645,899.453918 
	C805.321777,940.278015 768.061462,971.709778 726.145325,974.156921 
	C720.160645,974.506226 714.155640,974.642578 708.159912,974.645874 
	C591.503784,974.709839 474.847168,974.568726 358.191772,974.884949 
	C325.273224,974.974182 297.441681,964.346191 275.768707,939.278259 
	C261.705566,923.012329 254.257706,903.828491 252.837234,882.386902 
	C252.364059,875.244202 252.233307,868.067871 252.228210,860.906738 
	C252.148132,748.416809 252.036087,635.926758 252.172531,523.437073 
	C252.188843,509.988190 252.076706,496.236023 254.670990,483.149170 
	C263.050323,440.879517 299.728241,408.665466 343.019897,405.990967 
	C366.875793,404.517181 390.897491,405.727020 415.134644,405.727020 
	C414.347412,406.570221 413.477783,407.622101 412.487091,408.543793 
	C404.312775,416.148895 396.178436,423.798676 387.909821,431.300262 
	C378.208069,440.102081 370.406464,449.783813 372.134827,464.507477 
	C366.271454,464.507477 360.989349,464.519867 355.707306,464.505096 
	C341.797943,464.466125 329.422150,468.402344 319.452484,478.524780 
	C311.804962,486.289520 307.145416,495.421783 306.794800,506.499451 
	C306.599823,512.660461 306.205109,518.820862 306.205170,524.981506 
	C306.206268,639.471252 306.264923,753.960999 306.275085,868.450745 
	C306.276276,881.808411 308.625183,894.353027 318.092529,904.552307 
	C326.833801,913.969421 337.381256,919.761658 350.479523,920.221741 
	C353.476807,920.327026 356.475006,920.483765 359.472839,920.484436 
	C477.962189,920.510925 596.451538,920.499023 714.940857,920.574402 
	C725.800293,920.581299 735.647095,917.944458 744.469360,911.484619 
	C754.906616,903.842041 760.833252,893.657043 761.924744,880.797913 
	C762.287415,876.525452 761.981995,872.196228 761.981995,867.099915 
	C768.335938,867.099915 773.919067,867.099915 780.001709,867.099915 
z"/>
<path fill="#40A3FD" opacity="1.000000" stroke="none" 
	d="
M973.260193,618.000000 
	C973.211243,654.996399 973.530029,691.498047 973.018616,727.987976 
	C972.380920,773.493835 940.853088,811.678345 896.354309,821.268799 
	C888.600159,822.939941 880.497864,823.480591 872.539734,823.624939 
	C852.548035,823.987793 832.546753,823.830139 812.549316,823.857117 
	C811.632324,823.858398 810.715088,823.625793 809.182861,823.419128 
	C810.146973,822.165649 810.619263,821.338989 811.284180,820.718811 
	C821.273254,811.401611 831.347961,802.175415 841.275818,792.793640 
	C848.303284,786.152832 852.897217,778.200806 853.054626,768.250122 
	C853.104187,765.112915 854.612427,764.269531 857.433228,764.313721 
	C863.764465,764.413025 870.099731,764.444092 876.430725,764.339172 
	C900.839355,763.934692 918.853333,746.445312 919.023010,722.038940 
	C919.326538,678.378540 919.096436,634.714417 919.095703,591.051880 
	C919.094360,513.058716 919.065674,435.065552 919.128845,357.072479 
	C919.140076,343.173676 915.638550,330.776489 905.475769,320.729767 
	C897.262329,312.610260 887.474121,308.278687 875.949280,308.038788 
	C867.619690,307.865417 859.285461,307.869476 850.953308,307.869232 
	C737.796570,307.866058 624.639832,307.916565 511.483124,307.840729 
	C493.634949,307.828766 479.425385,314.504303 469.450104,329.415771 
	C463.963409,337.617523 462.461334,346.996094 462.867096,356.659729 
	C463.038544,360.742798 461.779327,362.160797 457.551392,362.094635 
	C442.889587,361.865143 428.219788,361.865997 413.557983,362.094147 
	C409.269012,362.160919 407.939972,360.961761 407.733704,356.512543 
	C405.191498,301.679810 446.317810,261.552002 492.515198,254.334030 
	C497.921783,253.489304 503.463257,253.178467 508.942444,253.176025 
	C632.264893,253.121109 755.588867,252.810074 878.908936,253.354553 
	C916.200745,253.519196 953.765076,278.575653 968.196960,320.610809 
	C973.696533,336.629242 973.237549,353.096680 973.556702,369.538788 
	C973.802307,382.193420 973.284851,394.860931 973.278442,407.522797 
	C973.243042,477.515198 973.260254,547.507629 973.260193,618.000000 
z"/>
<path fill="#012BAD" opacity="1.000000" stroke="none" 
	d="
M594.821045,763.167969 
	C527.745056,756.332886 472.837036,702.455750 464.833130,635.747498 
	C459.731140,593.224976 468.556702,554.113586 495.368988,520.117065 
	C521.482605,487.006409 556.080139,468.814789 597.974243,464.941559 
	C639.701111,461.083771 677.302002,471.924377 709.601501,498.914124 
	C738.437439,523.009766 755.372681,554.132080 760.393127,591.313904 
	C766.047607,633.192078 758.125671,672.287842 731.701172,705.922058 
	C697.059509,750.015564 650.909912,768.314087 594.821045,763.167969 
M564.722534,672.772156 
	C580.605347,690.168945 596.488098,707.565674 612.812561,725.446228 
	C645.789978,689.243164 678.099365,653.773560 710.408691,618.303894 
	C710.191772,617.910522 709.974915,617.517090 709.757996,617.123718 
	C708.164490,617.123718 706.570923,617.123718 704.977417,617.123718 
	C689.651001,617.123535 674.321899,616.962463 658.999939,617.223389 
	C654.534973,617.299377 653.389221,615.890808 653.414551,611.550659 
	C653.588318,581.731873 653.505554,551.911499 653.505310,522.091675 
	C653.505310,520.125183 653.505249,518.158691 653.505249,515.917358 
	C626.239319,515.917358 599.507751,515.917358 572.150696,515.917358 
	C572.150696,518.163269 572.152222,520.117554 572.150391,522.071838 
	C572.122253,552.058228 572.029053,582.044922 572.144287,612.030762 
	C572.159241,615.938538 571.111877,617.228455 567.080811,617.168030 
	C551.591125,616.935669 536.096191,617.043884 520.603210,617.047791 
	C518.908813,617.048218 517.214417,617.195129 515.305237,617.284058 
	C515.673828,618.334717 515.699829,618.718872 515.902649,618.942749 
	C532.007935,636.719666 548.127136,654.484070 564.722534,672.772156 
z"/>
<path fill="#FCFCFD" opacity="1.000000" stroke="none" 
	d="
M564.483887,672.510742 
	C548.127136,654.484070 532.007935,636.719666 515.902649,618.942749 
	C515.699829,618.718872 515.673828,618.334717 515.305237,617.284058 
	C517.214417,617.195129 518.908813,617.048218 520.603210,617.047791 
	C536.096191,617.043884 551.591125,616.935669 567.080811,617.168030 
	C571.111877,617.228455 572.159241,615.938538 572.144287,612.030762 
	C572.029053,582.044922 572.122253,552.058228 572.150391,522.071838 
	C572.152222,520.117554 572.150696,518.163269 572.150696,515.917358 
	C599.507751,515.917358 626.239319,515.917358 653.505249,515.917358 
	C653.505249,518.158691 653.505310,520.125183 653.505310,522.091675 
	C653.505554,551.911499 653.588318,581.731873 653.414551,611.550659 
	C653.389221,615.890808 654.534973,617.299377 658.999939,617.223389 
	C674.321899,616.962463 689.651001,617.123535 704.977417,617.123718 
	C706.570923,617.123718 708.164490,617.123718 709.757996,617.123718 
	C709.974915,617.517090 710.191772,617.910522 710.408691,618.303894 
	C678.099365,653.773560 645.789978,689.243164 612.812561,725.446228 
	C596.488098,707.565674 580.605347,690.168945 564.483887,672.510742 
z"/>
</svg>